<?xml version="1.0" standalone="no"?>
<!DOCTYPE svg PUBLIC "-//W3C//DTD SVG 20010904//EN"
 "http://www.w3.org/TR/2001/REC-SVG-20010904/DTD/svg10.dtd">
<svg version="1.0" xmlns="http://www.w3.org/2000/svg"
 width="230.000000pt" height="230.000000pt" viewBox="0 0 230.000000 230.000000"
 preserveAspectRatio="xMidYMid meet">
<metadata>
Created by potrace 1.11, written by Peter Selinger 2001-2013
</metadata>
<g transform="translate(0.000000,230.000000) scale(0.100000,-0.100000)"
fill="#000000" stroke="none">
<path d="M1075 1504 c-38 -7 -88 -16 -110 -19 -22 -3 -47 -8 -55 -10 -8 -2
-31 -6 -50 -9 -19 -3 -46 -8 -60 -10 -14 -3 -70 -12 -125 -21 -55 -9 -134 -22
-175 -30 -41 -8 -95 -17 -120 -20 -40 -6 -166 -27 -245 -41 -16 -3 -39 -7 -50
-8 -11 -2 -34 -6 -52 -10 l-32 -7 0 -196 -1 -196 48 6 c26 4 57 8 68 11 20 4
71 13 119 21 11 1 79 13 150 25 72 11 141 23 155 25 22 3 60 9 171 30 l25 5 0
-136 -1 -135 40 6 c22 4 54 9 70 11 17 3 37 7 45 9 8 2 33 6 55 10 22 3 90 14
150 24 61 11 128 22 150 26 63 9 106 16 129 21 55 11 140 25 164 29 60 7 117
17 122 20 3 2 30 6 60 10 30 4 58 9 61 10 3 2 28 7 55 10 27 4 56 8 64 10 8 3
33 7 55 10 22 3 51 8 65 10 14 3 40 7 58 10 55 9 85 14 154 25 l66 12 1 199
c0 109 -1 199 -3 199 -2 0 -28 -5 -57 -10 -30 -6 -70 -13 -89 -16 -71 -11 -93
-15 -99 -18 -3 -2 -35 -7 -71 -11 -36 -4 -68 -9 -71 -11 -5 -3 -89 -17 -164
-29 -17 -2 -68 -11 -175 -29 -27 -5 -315 -53 -366 -61 l-31 -5 2 112 c1 129
-3 158 -19 157 -6 0 -42 -7 -81 -15z"/>
</g>
</svg>
