<?xml version="1.0" encoding="iso-8859-1"?>
<!-- Generator: Adobe Illustrator 19.0.0, SVG Export Plug-In . SVG Version: 6.00 Build 0)  -->
<svg version="1.1" id="Capa_1" xmlns="http://www.w3.org/2000/svg" xmlns:xlink="http://www.w3.org/1999/xlink" x="0px" y="0px"
	 viewBox="0 0 512 512" style="enable-background:new 0 0 512 512;" xml:space="preserve">
<g>
	<g>
		<path d="M437,90h60c8.284,0,15-6.716,15-15V15c0-8.284-6.716-15-15-15h-60c-8.284,0-15,6.716-15,15v15H298.42
			C292.228,12.541,275.555,0,256,0s-36.228,12.541-42.42,30H90V15c0-8.284-6.716-15-15-15H15C6.716,0,0,6.716,0,15v60
			c0,8.284,6.716,15,15,15h60c8.284,0,15-6.716,15-15V59.8h53.779C79.638,96.831,35.637,164.563,30.508,241H15
			c-8.284,0-15,6.716-15,15v60c0,8.284,6.716,15,15,15h60c8.284,0,15-6.716,15-15v-60c0-8.284-6.716-15-15-15H60.591
			c6.669-86.107,70.195-158.81,154.744-176.751C222.563,79.458,238.071,90,256,90s33.438-10.542,40.666-25.751
			C381.214,82.19,444.74,154.893,451.409,241H437c-8.284,0-15,6.716-15,15v60c0,8.284,6.716,15,15,15h60c8.284,0,15-6.716,15-15v-60
			c0-8.284-6.716-15-15-15h-15.508c-5.129-76.437-49.13-143.969-113.271-181H422v15C422,83.284,428.716,90,437,90z M452,30h30v30
			h-30V30z M60,60H30V30h30V60z M60,301H30v-30h30V301z M256,60c-8.271,0-15-6.729-15-15s6.729-15,15-15s15,6.729,15,15
			S264.271,60,256,60z M452,271h30v30h-30V271z"/>
	</g>
</g>
<g>
	<g>
		<path d="M388.481,337.679l-120-180c-0.006-0.008-0.012-0.016-0.018-0.025c-5.912-8.82-18.829-8.84-24.809-0.165
			c-0.038,0.056-0.08,0.109-0.118,0.165c-0.006,0.008-0.012,0.016-0.018,0.025l-120,180C116.879,347.641,124.051,361,136,361
			c24.813,0,45,20.187,45,45v15h-15c-8.284,0-15,6.716-15,15v61c0,8.284,6.716,15,15,15h180c8.284,0,15-6.716,15-15v-61
			c0-8.284-6.716-15-15-15h-15v-15c0-24.813,20.187-45,45-45C387.971,361,395.109,347.622,388.481,337.679z M256,331
			c8.271,0,15,6.729,15,15s-6.729,15-15,15s-15-6.729-15-15S247.729,331,256,331z M331,482H181v-31c4.018,0,146.043,0,150,0V482z
			 M301,406v15h-90v-15c0-32.541-20.833-60.309-49.861-70.667L241,215.542v88.039c-17.459,6.192-30,22.865-30,42.42
			c0,24.813,20.187,45,45,45s45-20.187,45-45c0-19.555-12.541-36.228-30-42.42v-88.039l79.861,119.792
			C321.833,345.691,301,373.459,301,406z"/>
	</g>
</g>
<g>
</g>
<g>
</g>
<g>
</g>
<g>
</g>
<g>
</g>
<g>
</g>
<g>
</g>
<g>
</g>
<g>
</g>
<g>
</g>
<g>
</g>
<g>
</g>
<g>
</g>
<g>
</g>
<g>
</g>
</svg>
